<?xml version="1.0" standalone="no"?>
<!DOCTYPE svg PUBLIC "-//W3C//DTD SVG 20010904//EN"
 "http://www.w3.org/TR/2001/REC-SVG-20010904/DTD/svg10.dtd">
<svg version="1.0" xmlns="http://www.w3.org/2000/svg"
 width="1024.000000pt" height="1024.000000pt" viewBox="0 0 1024.000000 1024.000000"
 preserveAspectRatio="xMidYMid meet">

<g transform="translate(0.000000,1024.000000) scale(0.100000,-0.100000)"
fill="#FFFFFF" stroke="none">
<path d="M0 5120 l0 -5120 5120 0 5120 0 0 5120 0 5120 -5120 0 -5120 0 0
-5120z m4900 3462 l0 -519 -102 -12 c-132 -15 -321 -54 -455 -92 -116 -34
-336 -115 -403 -149 -39 -20 -48 -21 -84 -10 -50 15 -332 138 -438 191 -43 22
-78 36 -78 33 0 -13 162 -191 660 -724 458 -491 698 -748 710 -763 4 -5 32 -1
61 7 416 120 928 20 1290 -253 186 -140 327 -307 427 -506 100 -198 140 -367
149 -621 7 -198 -7 -307 -63 -492 l-34 -113 157 -175 158 -175 3 245 2 245 43
31 42 31 5 -1293 5 -1294 60 -76 c33 -42 63 -77 66 -77 8 -1 14 69 44 518 l24
355 79 80 c405 417 655 859 797 1411 34 131 75 373 75 439 l0 36 516 0 517 0
-7 -117 c-12 -193 -55 -464 -106 -666 -142 -558 -410 -1070 -817 -1559 -667
-802 -1592 -1305 -2615 -1422 -75 -9 -162 -16 -193 -16 l-55 0 0 520 0 520 39
0 c48 0 302 42 420 70 132 31 253 68 403 122 l136 49 218 -81 c119 -44 226
-86 236 -91 43 -23 27 5 -52 88 -109 114 -803 855 -898 957 l-73 79 -276 -69
c-152 -38 -282 -75 -290 -83 -12 -11 -14 -123 -13 -675 1 -363 1 -667 0 -673
0 -9 -22 -13 -75 -13 l-75 0 2 711 c3 708 3 711 24 728 12 9 152 49 317 90
l297 73 -17 22 c-10 12 -52 59 -94 105 l-76 82 -104 -23 c-90 -19 -133 -22
-319 -22 -185 0 -229 3 -317 22 -326 71 -594 230 -799 474 -135 161 -211 296
-274 487 -57 173 -74 284 -74 496 0 194 13 287 59 430 14 41 25 80 25 86 0 12
-267 312 -283 318 -7 2 -8 -48 -4 -158 5 -131 3 -163 -8 -175 -23 -22 -86 -59
-91 -53 -3 3 -8 433 -12 956 -3 523 -7 951 -10 951 -2 0 -45 -33 -96 -74 -107
-88 -326 -309 -413 -418 -332 -416 -541 -886 -613 -1374 -11 -77 -20 -142 -20
-146 0 -5 -229 -8 -510 -8 l-510 0 0 43 c0 61 27 269 51 395 118 619 369 1160
791 1710 126 163 390 440 563 590 528 455 1183 778 1845 910 155 31 389 64
503 70 l27 2 0 -518z m670 497 c427 -40 913 -190 1348 -415 738 -382 1336
-964 1745 -1702 259 -465 422 -994 462 -1494 l7 -88 -509 0 -509 0 -28 160
c-56 326 -131 560 -269 835 -179 358 -438 684 -764 962 -68 58 -123 108 -123
111 0 4 25 63 56 132 31 69 94 217 141 330 47 113 92 218 100 233 8 16 12 31
10 33 -6 6 -231 -280 -502 -641 -197 -262 -314 -413 -325 -420 -9 -6 -132 94
-128 104 4 8 152 195 265 335 l81 100 -31 21 c-114 76 -336 177 -537 243 -205
68 -414 112 -660 140 -53 6 -65 10 -64 25 0 9 1 242 2 517 l2 501 58 -5 c31
-3 109 -11 172 -17z m-380 -716 c0 -21 0 -351 0 -733 l0 -695 -25 -22 c-13
-12 -50 -27 -82 -33 -32 -6 -136 -30 -232 -52 l-175 -41 -33 37 c-18 19 -33
40 -33 45 0 12 30 21 255 76 l170 41 3 707 2 707 75 0 75 0 0 -37z m1734
-1751 c3 -15 9 -331 12 -702 6 -586 9 -677 22 -692 14 -17 62 -18 739 -18
l723 0 0 -77 0 -78 -712 3 c-392 1 -727 5 -744 7 -37 6 -110 79 -120 121 -9
35 2 1424 11 1446 15 36 60 29 69 -10z m-3647 -1423 c34 -13 89 -64 111 -104
16 -27 17 -102 15 -860 -2 -456 -5 -840 -8 -853 -4 -18 -10 -21 -30 -16 -17 4
-25 2 -25 -7 0 -10 -3 -10 -12 -1 -10 10 -14 194 -16 833 -4 774 -5 820 -22
842 l-18 22 -726 0 -726 0 0 78 0 77 714 0 c480 0 724 -3 743 -11z m-1132
-376 c31 -238 57 -373 106 -541 180 -620 548 -1154 1074 -1562 l107 -83 22 24
c13 13 85 95 160 181 l137 157 69 -47 c38 -26 69 -50 70 -53 0 -4 -54 -69
-121 -145 -166 -191 -174 -201 -160 -218 6 -7 64 -40 129 -74 343 -177 724
-291 1095 -328 l67 -6 0 -519 0 -519 -53 0 c-80 0 -366 37 -505 66 -576 118
-1125 365 -1594 716 -211 158 -328 260 -488 424 -518 532 -862 1133 -1029
1799 -65 262 -124 660 -112 768 1 4 230 7 510 7 l510 0 6 -47z"/>
<path d="M4957 6338 c-37 -6 -67 -14 -65 -19 4 -11 434 -474 658 -709 97 -102
313 -329 479 -505 167 -176 306 -321 310 -323 12 -4 42 148 51 252 9 104 -3
277 -25 371 -106 459 -480 816 -965 921 -91 20 -348 27 -443 12z"/>
<path d="M3869 5267 c-21 -95 -18 -390 5 -497 108 -498 489 -868 982 -954 92
-16 336 -21 407 -8 l37 7 -162 175 c-88 96 -243 263 -343 370 -100 107 -341
366 -535 575 -195 209 -359 383 -366 387 -8 5 -16 -12 -25 -55z"/>
</g>
</svg>
