<?xml version="1.0" standalone="no"?>
<!DOCTYPE svg PUBLIC "-//W3C//DTD SVG 20010904//EN"
 "http://www.w3.org/TR/2001/REC-SVG-20010904/DTD/svg10.dtd">
<svg version="1.0" xmlns="http://www.w3.org/2000/svg"
 width="1024.000000pt" height="1024.000000pt" viewBox="0 0 1024.000000 1024.000000"
 preserveAspectRatio="xMidYMid meet" class="dark:text-red-500">

<g transform="translate(0.000000,1024.000000) scale(0.100000,-0.100000)"
fill="#FFFFFF" stroke="none">
<path d="M4970 8384 c-524 -44 -1072 -229 -1505 -507 -398 -256 -698 -556
-968 -967 -315 -481 -490 -1020 -529 -1628 -43 -659 154 -1396 522 -1955 531
-809 1439 -1348 2424 -1438 174 -16 512 -6 681 19 649 100 1240 382 1726 825
530 483 871 1104 999 1817 74 419 67 893 -20 1275 -119 517 -332 952 -665
1352 -312 374 -658 652 -1086 868 -324 164 -658 269 -1019 320 -109 15 -463
27 -560 19z m-30 -257 c-1 -28 -21 -39 -89 -48 -400 -50 -798 -185 -1148 -390
-621 -364 -1116 -994 -1322 -1679 -57 -190 -113 -482 -123 -645 -3 -37 -5 -40
-33 -40 l-30 0 2 95 c7 419 226 1028 520 1447 485 692 1168 1126 1988 1262
187 31 235 31 235 -2z m684 8 c168 -28 287 -59 469 -121 435 -149 885 -437
1179 -755 113 -123 115 -125 92 -150 -18 -20 -19 -19 -99 65 -44 46 -101 101
-126 123 -26 21 -87 72 -136 113 -234 199 -587 403 -898 520 -147 55 -384 115
-531 135 -65 9 -132 19 -149 23 -56 14 -40 72 20 72 19 0 99 -11 179 -25z
m-269 -335 c391 -32 820 -184 1158 -412 243 -162 494 -407 689 -668 107 -143
238 -372 238 -414 0 -16 -163 -89 -188 -84 -9 2 -38 44 -65 93 -71 132 -132
227 -216 339 -59 78 -76 95 -81 81 -4 -10 -6 -28 -5 -39 1 -11 -9 -29 -22 -39
-13 -10 -21 -22 -18 -27 3 -4 -3 -6 -13 -4 -9 3 -27 -4 -39 -15 -12 -12 -24
-21 -27 -21 -3 0 -31 33 -62 73 -125 157 -203 244 -299 330 -247 222 -509 366
-795 437 -199 49 -250 55 -500 55 -204 0 -251 -3 -360 -24 -437 -82 -792 -266
-1108 -575 -203 -198 -354 -410 -474 -663 -72 -152 -62 -147 -178 -101 -88 34
-88 33 -50 135 44 117 135 300 212 424 178 286 484 594 758 763 441 273 942
396 1445 356z m-207 -552 c18 -18 14 -56 -7 -68 -29 -15 -39 -13 -56 14 -13
19 -14 29 -5 45 12 23 49 28 68 9z m-473 -168 c106 -16 193 -42 169 -51 -10
-4 -39 -8 -64 -9 -25 -1 -61 -7 -80 -15 l-35 -13 30 -11 c164 -63 292 -210
396 -451 86 -201 145 -418 184 -684 14 -94 28 -185 31 -202 3 -25 11 -34 32
-39 15 -4 161 -5 324 -3 l297 3 25 -24 c14 -13 28 -39 32 -56 8 -44 -18 -103
-51 -115 -15 -6 -153 -10 -331 -10 -167 0 -304 -3 -304 -7 0 -5 -1 -98 -3
-208 l-2 -200 276 -3 277 -2 32 -33 c30 -31 34 -32 116 -32 81 0 87 -1 110
-28 29 -34 30 -56 3 -91 l-20 -26 -408 0 -407 0 -13 -107 c-7 -60 -22 -153
-32 -208 -10 -55 -19 -103 -19 -107 0 -5 40 -8 89 -8 85 0 91 -1 110 -27 14
-17 19 -34 15 -47 -13 -42 -27 -47 -139 -49 l-107 -2 -47 -140 c-107 -318
-237 -500 -408 -571 -49 -20 -61 -30 -31 -25 4 0 5 -8 3 -18 -4 -21 17 -30 75
-32 l35 -1 -40 -13 c-55 -18 -248 -18 -334 0 -383 80 -751 372 -1002 794 -199
334 -297 767 -269 1199 34 533 274 1043 642 1362 206 179 416 282 633 309 98
12 130 12 210 1z m2854 -120 c83 -103 202 -286 262 -398 43 -81 44 -83 24 -98
-10 -8 -23 -13 -28 -11 -5 1 -34 48 -64 102 -77 139 -151 252 -249 378 -46 59
-84 113 -84 120 0 7 5 18 12 25 15 15 38 -6 127 -118z m-675 -655 c15 -8 32
-12 37 -9 5 3 32 -42 59 -100 141 -300 211 -663 196 -1006 -10 -216 -38 -372
-105 -581 -38 -119 -51 -132 -88 -92 -16 16 -39 37 -53 46 l-24 17 37 152 c47
190 58 258 43 263 -6 2 -27 6 -46 9 -67 12 -65 6 -61 212 2 148 0 188 -11 195
-7 5 -74 9 -150 9 l-136 0 -26 31 c-37 44 -36 101 3 140 l29 29 191 0 191 0 0
31 c0 69 -79 331 -138 459 -19 41 -40 94 -48 118 -13 41 -12 45 11 68 28 28
48 30 89 9z m-457 -261 c15 -24 15 -29 2 -53 -11 -20 -22 -26 -49 -26 -27 0
-38 6 -49 26 -13 24 -13 29 2 53 12 18 26 26 47 26 21 0 35 -8 47 -26z m1163
-110 c116 -393 120 -906 10 -1319 -34 -128 -75 -254 -87 -266 -12 -12 -214 71
-221 89 -3 8 9 58 27 111 88 270 116 446 116 741 -1 241 -14 370 -58 552 -13
53 -21 101 -18 106 7 12 157 61 187 62 18 0 25 -12 44 -76z m-4615 -25 c83
-30 86 -32 80 -58 -58 -225 -82 -598 -54 -849 15 -147 56 -334 101 -462 21
-63 40 -128 41 -145 2 -29 -1 -31 -73 -57 -41 -15 -81 -27 -87 -27 -36 -2
-131 303 -174 554 -27 155 -36 475 -20 641 18 178 72 434 92 434 4 0 47 -14
94 -31z m-384 -83 c8 -18 7 -49 -6 -127 -22 -131 -53 -172 -89 -116 -13 19
-13 34 4 123 10 56 23 111 29 123 16 28 49 27 62 -3z m-334 -824 c7 -4 16 -59
23 -132 35 -387 139 -772 291 -1085 62 -129 243 -417 328 -525 441 -555 1101
-939 1841 -1070 126 -22 399 -50 498 -50 42 0 68 -5 78 -14 12 -13 7 -15 -41
-21 -61 -8 -281 1 -415 16 -530 60 -1057 271 -1486 595 -210 158 -358 303
-560 549 -124 151 -341 550 -427 785 -83 226 -152 543 -176 804 -10 108 -7
134 13 148 14 10 18 10 33 0z m5923 -22 c20 -38 -33 -415 -90 -633 -100 -389
-260 -729 -473 -1012 -131 -173 -353 -408 -508 -538 -358 -300 -841 -539
-1296 -642 -92 -20 -360 -65 -393 -65 -15 0 -40 31 -40 49 0 15 19 20 123 35
549 77 1101 313 1527 652 114 91 367 346 461 464 235 297 374 541 476 835 64
186 114 410 137 620 9 77 18 160 21 184 7 66 34 90 55 51z m-2022 -694 c6 -50
-33 -72 -70 -39 -23 21 -23 38 2 63 26 26 64 13 68 -24z m-2969 -302 l21 -56
-20 -92 c-11 -50 -25 -106 -29 -123 -11 -38 -2 -42 25 -12 23 26 134 112 138
108 26 -34 66 -101 66 -111 0 -11 -317 -278 -338 -285 -4 -1 -26 24 -49 56
l-42 58 25 118 c13 65 23 119 22 121 -2 1 -32 -20 -68 -46 -36 -27 -69 -50
-75 -50 -5 0 -25 28 -44 62 l-34 62 34 28 c49 39 322 216 335 217 6 1 21 -24
33 -55z m4286 2 c116 -20 214 -38 218 -39 5 -1 -11 -40 -34 -86 -35 -71 -44
-82 -63 -78 -92 21 -81 25 -122 -39 -20 -33 -45 -69 -56 -81 -19 -20 -19 -23
-2 -76 l17 -55 -48 -56 c-27 -31 -50 -56 -51 -56 -12 0 -214 450 -214 476 0 9
17 44 38 76 43 69 4 68 317 14z m-1581 -8 c22 -31 20 -84 -4 -108 -64 -64
-166 43 -105 110 26 29 89 27 109 -2z m831 -8 c18 -11 49 -40 69 -65 29 -35
35 -48 27 -63 -18 -34 -236 -237 -331 -308 -111 -83 -261 -175 -326 -200 -61
-23 -88 -10 -119 59 -43 93 -42 95 56 147 181 97 353 227 504 379 38 39 74 71
79 71 5 0 23 -9 41 -20z m265 -459 c52 -27 78 -94 63 -164 -6 -28 -9 -53 -8
-55 2 -2 37 -6 79 -9 42 -3 76 -9 76 -14 0 -11 -69 -90 -103 -118 l-29 -24
-42 22 c-45 22 -66 25 -103 15 -31 -8 -29 -16 13 -80 20 -31 33 -59 28 -63 -5
-4 -32 -24 -60 -44 l-52 -37 -126 184 c-69 101 -126 189 -126 195 0 16 179
159 234 186 59 30 109 32 156 6z m-3423 -16 c62 -18 139 -84 164 -140 11 -24
19 -63 19 -100 0 -98 -65 -189 -165 -231 -105 -44 -251 20 -311 136 -40 77
-10 205 63 271 49 44 63 52 111 65 61 16 60 16 119 -1z m664 -244 l24 -20 -42
-42 c-38 -39 -44 -42 -67 -31 -33 15 -33 20 6 70 36 47 46 50 79 23z m-165
-97 c123 -69 204 -121 204 -131 0 -3 -12 -22 -27 -42 -14 -20 -27 -37 -29 -39
-1 -2 -45 20 -97 47 -53 28 -98 51 -100 51 -6 0 -31 -60 -26 -64 2 -2 34 -21
72 -41 l67 -37 -17 -30 c-31 -52 -37 -53 -108 -13 -36 21 -67 36 -69 34 -35
-51 -37 -59 -19 -67 51 -20 173 -99 173 -110 0 -11 -12 -33 -46 -80 -9 -13
-314 166 -314 185 0 21 203 403 214 403 3 0 57 -30 122 -66z m2406 8 l27 -48
-106 -55 c-59 -29 -108 -58 -109 -64 -2 -5 5 -21 16 -35 l19 -25 76 38 c41 20
79 37 84 37 9 0 31 -53 31 -74 0 -6 -33 -28 -74 -50 -58 -30 -73 -42 -69 -57
12 -45 29 -44 140 10 58 28 107 50 108 49 18 -27 45 -77 45 -84 0 -5 -15 -17
-33 -28 -67 -39 -301 -156 -311 -156 -6 0 -60 94 -119 210 l-108 209 168 84
c92 47 173 85 178 86 6 0 22 -21 37 -47z m-1158 12 c19 -18 20 -38 6 -65 -10
-17 -22 -19 -136 -19 -69 0 -134 5 -145 10 -25 14 -26 65 -1 79 9 6 72 11 139
11 97 0 125 -3 137 -16z m636 -207 c0 -14 -74 -385 -94 -467 l-12 -55 -70 -17
-69 -16 -28 31 c-28 32 -209 284 -262 365 -15 23 -25 45 -22 49 9 9 140 32
149 27 5 -3 47 -61 95 -130 47 -69 89 -121 93 -117 3 4 19 74 34 155 l28 148
62 19 c74 23 96 25 96 8z m-1231 -62 c148 -30 185 -46 218 -96 22 -33 25 -47
21 -98 -5 -67 -41 -126 -83 -137 -14 -3 -25 -10 -25 -15 0 -5 14 -43 30 -85
17 -42 29 -78 27 -80 -2 -2 -39 1 -81 8 l-78 12 -30 60 c-31 62 -55 96 -69 96
-4 0 -13 -24 -20 -54 -6 -30 -15 -59 -18 -64 -9 -15 -141 18 -141 35 0 12 63
288 90 396 7 26 18 47 25 47 7 0 67 -11 134 -25z m541 -295 l0 -240 -70 0 -70
0 0 234 c0 178 3 236 13 239 6 3 38 6 70 6 l57 1 0 -240z"/>
<path d="M4350 6926 c-222 -93 -314 -163 -491 -375 -371 -443 -530 -979 -463
-1561 20 -177 37 -258 86 -408 138 -423 415 -775 751 -956 72 -39 82 -41 122
-26 l27 10 -36 43 c-191 223 -320 516 -396 897 -52 262 -63 381 -64 673 l0
267 -107 0 c-92 0 -110 3 -133 21 -21 16 -26 29 -26 63 0 70 19 80 163 86
l122 5 22 135 c61 363 172 676 318 895 50 76 203 235 225 235 5 0 10 5 10 10
0 7 -6 7 -19 0 -25 -13 -34 -13 -26 0 10 17 -27 11 -85 -14z"/>
<path d="M4493 5496 c-125 -41 -193 -136 -193 -270 0 -195 215 -330 386 -243
59 31 118 89 138 139 21 50 22 173 2 221 -21 49 -80 108 -133 136 -54 27 -145
35 -200 17z"/>
<path d="M2985 3080 c10 -11 20 -20 23 -20 3 0 -3 9 -13 20 -10 11 -20 20 -23
20 -3 0 3 -9 13 -20z"/>
<path d="M7256 3846 c13 -43 45 -97 56 -94 6 2 21 22 34 45 l25 40 -61 16
c-61 15 -61 15 -54 -7z"/>
<path d="M6805 3362 c-57 -35 -61 -47 -29 -86 16 -19 34 -35 40 -35 18 -1 85
78 78 92 -14 24 -37 47 -48 47 -6 0 -24 -8 -41 -18z"/>
<path d="M3455 3350 c-28 -11 -62 -49 -75 -84 -14 -39 3 -82 41 -102 25 -13
33 -13 61 0 46 21 62 36 82 75 15 27 16 38 6 62 -21 49 -67 69 -115 49z"/>
<path d="M4653 2730 c-6 -28 -7 -52 -4 -54 3 -2 25 -7 47 -10 50 -9 74 10 74
55 0 25 -6 33 -35 45 -60 25 -71 20 -82 -36z"/>
</g>
</svg>
